<?xml version="1.0" encoding="UTF-8"?>
<svg width="813.33" height="142.67" version="1.1" viewBox="0 0 813.33331 142.66667" xml:space="preserve" xmlns="http://www.w3.org/2000/svg" xmlns:cc="http://creativecommons.org/ns#" xmlns:dc="http://purl.org/dc/elements/1.1/" xmlns:rdf="http://www.w3.org/1999/02/22-rdf-syntax-ns#"><metadata><rdf:RDF><cc:Work rdf:about=""><dc:format>image/svg+xml</dc:format><dc:type rdf:resource="http://purl.org/dc/dcmitype/StillImage"/><dc:title/></cc:Work></rdf:RDF></metadata><g transform="matrix(1.3333 0 0 -1.3333 0 142.67)"><g transform="scale(.1)" fill="#f47216"><path d="m8.1133 805.72v-798.85h110.19v688.66h422.38v-688.66h107.12v688.66h264.75c104.06 0 156.1-55.09 156.1-163.75v-524.91h111.71v543.28c0 169.87-82.64 255.57-246.39 255.57h-925.87"/><path d="m2074.1 6.8711v108.66h-456.05c-101 0-151.5 53.563-151.5 157.63v273.93c0 108.65 52.04 149.98 156.1 149.98h243.32c82.64 0 125.49-41.32 125.49-122.43v-15.305c0-70.391-41.32-105.59-123.96-105.59h-325.14v-94.886l354.22 3e-3c136.2 0 202.01 59.692 202.01 177.53v58.152c0 140.78-70.4 211.18-212.72 211.18h-281.59c-165.28 0-249.45-85.699-249.45-255.57v-287.7c0-169.87 84.17-255.57 249.45-255.57h469.82"/><path d="m2654.1 115.53h-21.53c-98.36 0-148.88 50.86-151.4 149.73v431.81h172.93v108.65h-172.93v73.277h0.16v112.79c0 48.231-19.15 74.091-69.52 74.091h-42.19v-113.38h-0.17v-146.78h-149.97v-108.65h149.97v-146.92l-0.1 3e-3v-287.7c0-3.265 0.04-6.492 0.1-9.695v-19.105h0.77c9.22-150.7 92.92-226.77 248.57-226.77h35.31v108.66"/><path d="m2828 805.72v-230.32h69.31c27.25 0 40.87 14.426 40.87 42.879v78.789h345.86c101.01 0 151.51-53.668 151.51-157.63v-85.7h-497.37l0.01-52.015c0-28.313-13.75-42.871-40.87-42.871h-93.81v-140.79c0-140.79 70.4-211.19 212.72-211.19h281.59c165.27 0 249.45 85.699 249.45 255.57v287.7c0 169.87-84.18 255.57-249.45 255.57zm289.79-446.87h74.76c50.36 0 69.52-25.856 69.52-74.098v-112.79c0-38.305-19.21-58.168-56.76-58.168h-38.57c-32.53 0-48.95 19.25-48.95 57.465v187.59"/><path d="m3966.6 1065.9c-166.8 0-249.45-84.169-249.45-254.03l0.01-550.94c0-169.86 82.64-254.04 249.45-254.04h344.33c149.97 0 224.96 74.988 224.96 226.5v342.03h-425.45v-94.878h316.79v-225.73c0-93.34-45.92-139.26-139.26-139.26h-299.95c-102.52 0-154.56 52.028-154.56 157.62l-0.01 520.33c0 105.6 52.03 157.62 154.57 157.62h521.85v114.78h-543.28"/><path d="m5875 805.72c-166.81 0-249.45-85.699-249.45-255.82v-543.02h111.72v524.66c0 108.91 53.56 164 157.62 164h195.89v110.19h-215.78"/><path d="m5426.6 6.8711v108.66h-456.05c-101 0-151.5 53.563-151.5 157.63v273.93c0 108.65 52.03 149.98 156.09 149.98h243.33c82.64 0 125.49-41.32 125.49-122.43v-15.305c0-70.391-41.32-105.59-123.96-105.59h-325.14v-94.886l354.22 3e-3c136.2 0 202.01 59.692 202.01 177.53v58.152c0 140.78-70.4 211.18-212.72 211.18h-281.59c-165.28 0-249.45-85.699-249.45-255.57v-287.7c0-169.87 84.17-255.57 249.45-255.57h469.82"/></g></g></svg>
