<?xml version="1.0" encoding="UTF-8" standalone="no"?>
<svg
   width="301"
   height="301"
   viewBox="0 0 301 301"
   version="1.1"
   preserveAspectRatio="xMidYMid"
   id="svg34"
   sodipodi:docname="brave.svg"
   inkscape:version="1.2.1 (9c6d41e410, 2022-07-14)"
   xmlns:inkscape="http://www.inkscape.org/namespaces/inkscape"
   xmlns:sodipodi="http://sodipodi.sourceforge.net/DTD/sodipodi-0.dtd"
   xmlns="http://www.w3.org/2000/svg"
   xmlns:svg="http://www.w3.org/2000/svg">
  <sodipodi:namedview
     id="namedview36"
     pagecolor="#ffffff"
     bordercolor="#666666"
     borderopacity="1.0"
     inkscape:showpageshadow="2"
     inkscape:pageopacity="0.0"
     inkscape:pagecheckerboard="0"
     inkscape:deskcolor="#d1d1d1"
     showgrid="false"
     inkscape:zoom="2.4551495"
     inkscape:cx="128.09811"
     inkscape:cy="150.5"
     inkscape:window-width="3840"
     inkscape:window-height="2082"
     inkscape:window-x="0"
     inkscape:window-y="0"
     inkscape:window-maximized="1"
     inkscape:current-layer="svg34" />
  <defs
     id="defs20">
    <linearGradient
       x1="0"
       y1="116.54461"
       x2="186.14996"
       y2="116.54461"
       id="linearGradient-1"
       gradientTransform="scale(0.69850138,1.4316364)"
       gradientUnits="userSpaceOnUse">
      <stop
         stop-color="#FFFFFF"
         offset="0%"
         id="stop2" />
      <stop
         stop-color="#FFFFFF"
         stop-opacity="0.9576"
         offset="14.13%"
         id="stop4" />
      <stop
         stop-color="#FFFFFF"
         stop-opacity="0.7"
         offset="100%"
         id="stop6" />
    </linearGradient>
    <linearGradient
       x1="187.35059"
       y1="112.26521"
       x2="373.38791"
       y2="112.26521"
       id="linearGradient-2"
       gradientTransform="scale(0.68561406,1.4585465)"
       gradientUnits="userSpaceOnUse">
      <stop
         stop-color="#F1F1F2"
         offset="0%"
         id="stop9" />
      <stop
         stop-color="#E4E5E6"
         offset="9.191442%"
         id="stop11" />
      <stop
         stop-color="#D9DADB"
         offset="23.57%"
         id="stop13" />
      <stop
         stop-color="#D2D4D5"
         offset="43.8%"
         id="stop15" />
      <stop
         stop-color="#D0D2D3"
         offset="100%"
         id="stop17" />
    </linearGradient>
  </defs>
  <g
     id="g32"
     transform="translate(23.100114)">
    <path
       d="M 256,97.1 246.7,72 253.1,57.6 c 0.8,-1.9 0.4,-4 -1,-5.5 L 234.6,34.4 C 226.9,26.7 215.5,24 205.2,27.6 L 200.3,29.3 173.5,0.3 128.2,0 h -0.3 L 82.3,0.4 55.6,29.6 50.8,27.9 C 40.4,24.2 28.9,26.9 21.2,34.8 L 3.4,52.8 C 2.2,54 1.9,55.7 2.5,57.2 L 9.2,72.2 0,97.3 6,120 33.2,223.3 c 3.1,11.9 10.3,22.3 20.4,29.5 0,0 33,23.3 65.5,44.4 2.9,1.9 5.9,3.2 9.1,3.2 3.2,0 6.2,-1.3 9.1,-3.2 36.6,-24 65.5,-44.5 65.5,-44.5 10,-7.2 17.2,-17.6 20.3,-29.5 l 27,-103.3 z"
       fill="#f15a22"
       id="path22" />
    <path
       d="M 34.5,227.7 0,99.5 10.1,74.4 3.1,55.8 19.8,38.8 c 5.5,-4.9 16.3,-6.6 21.3,-3.7 l 26.1,15 34,7.9 26.5,-11 2.2,227.7 c -0.4,32.8 1.7,29.3 -22.4,13.8 L 48,248.6 c -6.4,-6.1 -11.3,-13 -13.5,-20.9 z"
       fill="url(#linearGradient-1)"
       opacity="0.15"
       style="mix-blend-mode:lighten;fill:url(#linearGradient-1)"
       id="path24" />
    <path
       d="m 202.2,252.24574 -50.6,34.6 c -14.1,7.7 -20.9,15.3 -22,11.6 -0.9,-2.9 -0.2,-11.4 -0.5,-24.6 L 128.5,51.145742 c 0.1,-2.2 1.6,-5.9 4.2,-5.5 l 25.8,7.8 37.2,-5.8 24.6,-18.1 c 2.6,-2 6.4,-1.8 8.8,0.5 l 22,21 c 2,2.1 2.1,6.2 0.9,8.8 l -6.1,11.3 10.1,26.1 -34.8,129.399998 c -5.4,16.1 -13,20.3 -19,25.6 z"
       fill="url(#linearGradient-2)"
       opacity="0.4"
       style="mix-blend-mode:darken;fill:url(#linearGradient-2)"
       id="path26" />
    <path
       d="m 134,184.80137 c -1.2,-0.5 -2.5,-0.9 -2.9,-0.9 h -1.6 -1.6 c -0.4,0 -1.7,0.4 -2.9,0.9 l -13,5.4 c -1.2,0.5 -3.2,1.4 -4.4,2 l -19.6,10.2 c -1.2,0.6 -1.3,1.7 -0.2,2.5 l 17.3,12.2 c 1.1,0.8 2.8,2.1 3.8,3 l 7.7,6.6 c 1,0.9 2.6,2.3 3.6,3.2 l 7.4,6.6 c 1,0.9 2.6,0.9 3.6,0 l 7.6,-6.6 c 1,-0.9 2.6,-2.3 3.6,-3.2 l 7.7,-6.7 c 1,-0.9 2.7,-2.2 3.8,-3 l 17.3,-12.3 c 1.1,-0.8 1,-1.9 -0.2,-2.5 l -19.6,-10 c -1.2,-0.6 -3.2,-1.5 -4.4,-2 z"
       fill="#ffffff"
       id="path28" />
    <path
       d="m 227.8133,101.55713 c 0.4,-1.3 0.4,-1.800001 0.4,-1.800001 0,-1.3 -0.1,-3.5 -0.3,-4.8 l -1,-2.9 c -0.6,-1.2 -1.6,-3.1 -2.4,-4.2 l -11.3,-16.7 c -0.7,-1.1 -2,-2.8 -2.9,-3.9 l -14.6,-18.3 c -0.8,-1 -1.6,-1.9 -1.7,-1.8 h -0.2 c 0,0 -1.1,0.2 -2.4,0.4 l -22.3,4.4 c -1.3,0.3 -3.4,0.7 -4.7,0.9 l -0.4,0.1 c -1.3,0.2 -3.4,0.1 -4.7,-0.3 l -18.7,-6 c -1.3,-0.4 -3.4,-1 -4.6,-1.3 0,0 -3.8,-0.9 -6.9,-0.8 -3.1,0 -6.9,0.8 -6.9,0.8 -1.3,0.3 -3.4,0.9 -4.6,1.3 l -18.700001,6 c -1.3,0.4 -3.4,0.5 -4.7,0.3 l -0.4,-0.1 c -1.3,-0.2 -3.4,-0.7 -4.7,-0.9 l -22.5,-4.2 c -1.3,-0.3 -2.4,-0.4 -2.4,-0.4 h -0.2 c -0.1,0 -0.9,0.8 -1.7,1.8 l -14.6,18.3 c -0.8,1 -2.1,2.8 -2.9,3.9 l -11.3,16.7 c -0.7,1.1 -1.8,3 -2.4,4.2 l -1,2.9 c -0.2,1.3 -0.4,3.5 -0.3,4.8 0,0 0,0.400001 0.4,1.800001 0.7,2.4 2.4,4.6 2.4,4.6 0.8,1 2.3,2.7 3.2,3.6 l 33.1,35.2 c 0.9,1 1.2,2.8 0.7,4 l -6.9,16.3 c -0.5,1.2 -0.6,3.2 -0.1,4.5 l 1.9,5.1 c 1.6,4.3 4.3,8.1 7.9,11 l 6.7,5.4 c 1,0.8 2.8,1.1 4,0.5 l 21.200001,-10.1 c 1.2,-0.6 3,-1.8 4,-2.7 l 15.2,-13.7 c 2.2,-2 2.3,-5.4 0.3,-7.6 l -31.900001,-21.5 c -1.1,-0.7 -1.5,-2.3 -0.9,-3.5 l 14.000001,-26.4 c 0.6,-1.2 0.7,-3.1 0.2,-4.3 l -1.7,-3.900001 c -0.5,-1.2 -2,-2.6 -3.2,-3.1 l -41.100001,-15.4 c -1.2,-0.5 -1.2,-1 0.1,-1.1 l 26.5,-2.5 c 1.3,-0.1 3.4,0.1 4.7,0.4 l 23.600001,6.6 c 1.3,0.4 2.1,1.7 1.9,3 l -8.2,44.900001 c -0.2,1.3 -0.2,3.1 0.1,4.1 0.3,1 1.6,1.9 2.9,2.2 l 16.4,3.5 c 1.3,0.3 3.4,0.3 4.7,0 l 15.3,-3.5 c 1.3,-0.3 2.6,-1.3 2.9,-2.2 0.3,-0.9 0.4,-2.8 0.1,-4.1 l -8.1,-44.900001 c -0.2,-1.3 0.6,-2.7 1.9,-3 l 23.6,-6.6 c 1.3,-0.4 3.4,-0.5 4.7,-0.4 l 26.5,2.5 c 1.3,0.1 1.4,0.6 0.1,1.1 l -41.1,15.6 c -1.2,0.5 -2.7,1.8 -3.2,3.1 l -1.7,3.900001 c -0.5,1.2 -0.5,3.2 0.2,4.3 l 14.1,26.4 c 0.6,1.2 0.2,2.7 -0.9,3.5 l -31.9,21.6 c -2.1,2.1 -1.9,5.6 0.3,7.6 l 15.2,13.7 c 1,0.9 2.8,2.1 4,2.6 l 21.3,10.1 c 1.2,0.6 3,0.3 4,-0.5 l 6.7,-5.5 c 3.6,-2.9 6.3,-6.7 7.8,-11 l 1.9,-5.1 c 0.5,-1.2 0.4,-3.3 -0.1,-4.5 l -6.9,-16.3 c -0.5,-1.2 -0.2,-3 0.7,-4 l 33.1,-35.2 c 0.9,-1 2.3,-2.6 3.2,-3.6 -0.2,-0.3 1.6,-2.5 2.2,-4.9 z"
       fill="#ffffff"
       id="path30" />
  </g>
</svg>
