<?xml version="1.0" encoding="UTF-8"?>
<svg class="" width="224.23" height="221" aria-label="Ecosia logo" data-v-08949fcc="" data-v-258ffcd8="" role="img" version="1.1" viewBox="0 0 224.23 221" xmlns="http://www.w3.org/2000/svg" xmlns:cc="http://creativecommons.org/ns#" xmlns:dc="http://purl.org/dc/elements/1.1/" xmlns:rdf="http://www.w3.org/1999/02/22-rdf-syntax-ns#">
 <metadata>
  <rdf:RDF>
   <cc:Work rdf:about="">
    <dc:format>image/svg+xml</dc:format>
    <dc:type rdf:resource="http://purl.org/dc/dcmitype/StillImage"/>
    <dc:title/>
   </cc:Work>
  </rdf:RDF>
 </metadata>
 <g transform="translate(-134.25 105.13)">
  <path transform="translate(93.5 59)" d="m170.23-131.41c-11.858-2.286-24.482-2.7007-36.229 0.0995-11.259 2.6837-22.147 8.1604-31.031 15.578-9.3825 7.8335-16.919 16.729-21.735 27.323-5.9231 13.03-9.5481 24.469-7.7434 42.235 1.1587 11.407 3.9112 19.647 8.4453 28.434 27.514 53.317 91.394 54.16 122.81 23.719 11.381-11.027 19.352-18.908 25.124-39.671 2.7671-9.954 3.1604-20.605 2.3542-30.905-0.26367-3.3683-1.1081-6.715-2.3332-9.8637-4.5871-11.79-9.6435-24.114-18.521-33.127-11.12-11.289-28.357-21.262-41.14-23.822z" fill="#d9e559"/>
  <path d="m231.97 83.843c-18.104-3.3541-34.398-12.867-46.637-27.228-5.2018-6.1035-5.3684-8.4646-0.76533-10.845 3.241-1.676 4.9025-4.2683 4.9025-7.6487 0-1.2818 0.9-4.0098 2-6.0621 1.1-2.0524 2-4.8424 2-6.2 0-2.722-1.3352-3.6679-8.6308-6.1145-5.3287-1.787-8.3692-3.9937-8.3692-6.0742 0-0.73694-2.0654-2.3108-4.5898-3.4974s-4.8548-2.848-5.1787-3.692c-1.0474-2.7296 1.6642-19.749 4.351-27.309 2.7174-7.6455 6.9544-15.833 8.831-17.066 0.59762-0.39244 1.0866-1.1911 1.0866-1.7748s2.2132-3.7397 4.9183-7.0133c4.1382-5.008 5.2969-5.857 7.3054-5.3529 1.6381 0.41113 3.0756-0.04567 4.5817-1.4558 2.2658-2.1216 9.1805-5.3789 13.863-6.5306 1.4679-0.36101 4.9002-3.1599 7.6274-6.2198 4.835-5.4248 5.1547-5.5983 12.831-6.9664 13.798-2.4592 28.188-1.3146 41.356 3.2895 5.1651 1.8059 5.3538 1.9867 3.25 3.1127-2.295 1.2283-3.0941 4.125-1.1379 4.125 0.6026 0 2.3378-0.8845 3.856-1.9655 2.4466-1.7421 2.9756-1.8011 4.6544-0.519 2.6426 2.0183 0.66871 3.1448-7.0408 4.0183-3.3358 0.37795-7.5443 1.2965-9.3522 2.0412-1.8079 0.7447-3.0503 0.97099-2.761 0.50286 1.073-1.7361-2.6194-3.3215-8.9124-3.8267-7.0319-0.56446-8.6655 0.08514-15.225 6.0543-3.6636 3.3338-4.1352 5.1358-1.7007 6.4983 1.2372 0.69236 1.3745 1.3456 0.58853 2.7997-1.2813 2.3706-7.4399 6.1798-6.6459 4.1106 0.71237-1.8564-2.91-6.2314-4.398-5.3118-1.2073 0.74615-0.61037 5.1665 0.97093 7.1898 0.46939 0.6006 0.51984 1.4288 0.11211 1.8404-0.40772 0.41159-0.74132 1.7136-0.74132 2.8933 0 1.6-0.76215 2.2782-3 2.6695-2.743 0.47962-3 0.86553-3 4.5049 0 3.6134 0.27658 4.0395 3 4.6219 2.928 0.6261 2.9362 0.64435 0.3438 0.75982-1.9664 0.08759-3.6544 1.4566-6.5 5.2714-2.1141 2.8342-4.4094 5.9063-5.1008 6.8268-0.69132 0.92052-1.4942 4.6215-1.7842 8.2244-0.50362 6.2577-0.37746 6.7463 2.8206 10.923l3.2276 3.884s5.7044 0.3297 8.5565 0.49455c7.345 0.42453 12.936 1.2745 12.936 5.3175 0 1.5144 0.90927 4.536 2.0206 6.7148 1.6168 3.1697 1.8963 5.0613 1.3988 9.4642-0.88611 7.8418 4.0817 23.387 7.8567 24.585 3.0718 0.97496 8.2509-0.44644 10.395-2.853 2.6648-2.9908 6.3287-9.5078 6.3287-11.257 0-0.77443 1.4068-3.0103 3.1262-4.9686 2.9771-3.3907 3.0943-3.8429 2.4569-9.4766l-0.66932-5.916 5.0927-5.6235c7.7098-8.5135 8.8033-13.04 3.3025-13.671-2.6929-0.3088-2.6164-0.41702 1.8495-2.6171 8.1198-4 11.689-8.9579 8.6414-12.005-0.93333-0.93333-0.47785-1.2 2.0497-1.2 6.4571 0 11.73 4.4049 14.647 12.236 0.97027 2.6047 2.3747 5.2425 3.1209 5.8619 2.0392 1.6924 4.3823 0.2995 4.3823-2.605 0-2.7634 7.2981-11.528 8.5536-10.272 1.3944 1.3944 1.6804 14.753 0.49013 22.893-6.5692 44.927-49.175 75.63-93.544 67.409zm50.972-42.757c1.5067-4.371 1.6958-5.998 0.80135-6.8925-2.1985-2.1985-6.0577 1.5044-6.8123 6.5365-1.318 8.7894 3.0156 9.046 6.011 0.35597zm-55.972-85.78c0-2.1435-2.9057-1.8339-3.3271 0.35451-0.25736 1.3364 0.14991 1.7437 1.4863 1.4863 1.0124-0.19498 1.8408-1.0233 1.8408-1.8408zm-7-10.986c1.141-1.8462-0.48952-3.076-2.5887-1.9525-1.082 0.57908-1.7032 1.4803-1.3803 2.0027 0.77111 1.2477 3.1857 1.2172 3.969-0.05017zm29.25-11.63c3.6166-0.96922 2.7682-3.3697-1.191-3.3697-3.5178 0-5.162 1.2153-4.059 3 0.70433 1.1396 2.029 1.2329 5.25 0.36971zm24.497 65.38c-1.432-1.7945-4.6629-8.446-3.5217-7.25 1.3948 1.4617 5.517 8.5 4.9783 8.5-0.25251 0-0.90797-0.5625-1.4566-1.25zm12.003-10.781c-1.2375-0.49742-2.25-1.1018-2.25-1.343 0-0.74433 3.9982 0.56217 4.5746 1.4949 0.636 1.0291 0.60905 1.0273-2.3246-0.15187zm-42.02-10.341c-2.9532-2.5923-3.8092-2.8275-8.7874-2.4147l-5.5155 0.45739 3.2255-3.3279c4.3703-4.509 6.0588-4.8407 10.928-2.1468 3.1277 1.7305 4.2824 1.9826 4.6391 1.0128 0.32493-0.88349 1.2736-0.42948 3.004 1.4377 2.4378 2.6305 2.5791 2.6606 3.9141 0.83478 1.3463-1.8412 1.4283-1.8324 2.9305 0.31232 0.85001 1.2136 2.5325 2.2134 3.7388 2.2218 3.1032 0.02166 5.0864 1.518 4.3961 3.3168-0.47804 1.2458-2.3373 1.4996-9.8948 1.3509-8.6963-0.17107-9.5206-0.3713-12.578-3.0552zm37.964-4.8945c-0.5681-0.68452-1.3248-2.5921-1.6814-4.239-0.62721-2.896-0.59459-2.9287 0.99289-0.99441 2.6492 3.228 3.5758 5.3319 2.6109 5.9283-0.48917 0.30232-1.3542-0.01038-1.9223-0.69491zm-20.944-4.9834c0.23671-0.71014 2.0722-1.25 4.25-1.25s4.0133 0.53986 4.25 1.25c0.29365 0.88095-0.96111 1.25-4.25 1.25s-4.5436-0.36905-4.25-1.25zm-13.361-15.5c0.49811-0.9625 1.3308-2.8658 1.8505-4.2295l0.94484-2.4795 1.2377 2.3127c1.0394 1.9421 0.95976 2.6198-0.49699 4.2295-2.2536 2.4902-4.8006 2.6104-3.536 0.16681z" fill="#59b0d4" stroke-width="3.7795"/>
 </g>
 <path d="m112.12 0a112.12 110.5 0 0 0-112.12 110.5 112.12 110.5 0 0 0 112.12 110.5 112.12 110.5 0 0 0 112.12-110.5 112.12 110.5 0 0 0-112.12-110.5zm-0.6875 13.061a97.659 98.428 0 0 1 97.66 98.43 97.659 98.428 0 0 1-97.66 98.428 97.659 98.428 0 0 1-97.658-98.428 97.659 98.428 0 0 1 97.658-98.43z" fill="#e4774f"/>
<script xmlns=""/></svg>