<?xml version="1.0" encoding="UTF-8"?>
<!DOCTYPE svg PUBLIC "-//W3C//DTD SVG 1.1//EN" "http://www.w3.org/Graphics/SVG/1.1/DTD/svg11.dtd">
<svg xmlns="http://www.w3.org/2000/svg" version="1.1" width="96px" height="96px" style="shape-rendering:geometricPrecision; text-rendering:geometricPrecision; image-rendering:optimizeQuality; fill-rule:evenodd; clip-rule:evenodd" xmlns:xlink="http://www.w3.org/1999/xlink">
<g><path style="opacity:0.993" fill="#cf0704" d="M 37.5,-0.5 C 44.1667,-0.5 50.8333,-0.5 57.5,-0.5C 68.7319,2.54464 78.2319,8.54464 86,17.5C 86.3333,17.1667 86.6667,16.8333 87,16.5C 89.2481,19.328 91.2481,22.328 93,25.5C 93.5946,26.8989 93.4279,28.2322 92.5,29.5C 92.9943,31.0255 93.661,32.3588 94.5,33.5C 94.2627,34.791 94.596,35.791 95.5,36.5C 95.5,43.8333 95.5,51.1667 95.5,58.5C 94.596,59.209 94.2627,60.209 94.5,61.5C 93.596,62.209 93.2627,63.209 93.5,64.5C 92.1667,65.1667 92.1667,65.8333 93.5,66.5C 92.191,71.1208 89.8577,75.1208 86.5,78.5C 86.1667,77.1667 85.8333,77.1667 85.5,78.5C 84.8333,78.5 84.5,78.8333 84.5,79.5C 83.8333,79.5 83.5,79.8333 83.5,80.5C 82.8333,80.5 82.5,80.8333 82.5,81.5C 81.8333,81.5 81.5,81.8333 81.5,82.5C 80.8333,82.5 80.5,82.8333 80.5,83.5C 79.8333,83.5 79.5,83.8333 79.5,84.5C 78.8333,84.5 78.5,84.8333 78.5,85.5C 77.8333,85.5 77.5,85.8333 77.5,86.5C 76.5084,86.3284 75.8417,86.6618 75.5,87.5C 74.8333,87.5 74.5,87.8333 74.5,88.5C 73.5084,88.3284 72.8417,88.6618 72.5,89.5C 71.8333,89.5 71.5,89.8333 71.5,90.5C 70.5084,90.3284 69.8417,90.6618 69.5,91.5C 68.5084,91.3284 67.8417,91.6618 67.5,92.5C 66.209,92.2627 65.209,92.596 64.5,93.5C 63.209,93.2627 62.209,93.596 61.5,94.5C 59.901,94.2322 58.5676,94.5655 57.5,95.5C 50.8333,95.5 44.1667,95.5 37.5,95.5C 36.4324,94.5655 35.099,94.2322 33.5,94.5C 23.9017,91.0961 15.7351,85.4295 9,77.5C 8.66667,77.8333 8.33333,78.1667 8,78.5C 5.02589,74.8816 2.85922,70.8816 1.5,66.5C 2.83333,65.8333 2.83333,65.1667 1.5,64.5C 1.40505,62.2143 0.738379,60.2143 -0.5,58.5C -0.5,51.1667 -0.5,43.8333 -0.5,36.5C 0.403972,35.791 0.737305,34.791 0.5,33.5C 1.33903,32.3588 2.00569,31.0255 2.5,29.5C 1.57211,28.2322 1.40544,26.8989 2,25.5C 3.75192,22.328 5.75192,19.328 8,16.5C 8.33333,16.8333 8.66667,17.1667 9,17.5C 16.7681,8.54464 26.2681,2.54464 37.5,-0.5 Z"/></g>
<g><path style="opacity:1" fill="#fdfbfb" d="M 38.5,7.5 C 63.3678,5.23067 79.5344,15.8973 87,39.5C 89.1619,64.3225 78.3286,80.1558 54.5,87C 29.3668,89.1849 13.8668,78.0182 8,53.5C 6.76349,30.5754 16.9302,15.2421 38.5,7.5 Z"/></g>
<g><path style="opacity:1" fill="#8a1513" d="M 47.5,17.5 C 50.2003,19.2344 52.2003,21.5677 53.5,24.5C 53.0825,25.2216 52.4158,25.7216 51.5,26C 48.5184,26.498 45.5184,26.6646 42.5,26.5C 42.5,26.1667 42.5,25.8333 42.5,25.5C 44.5273,25.6621 46.5273,25.4955 48.5,25C 47.565,22.6194 47.2317,20.1194 47.5,17.5 Z"/></g>
<g><path style="opacity:1" fill="#c60e08" d="M 47.5,17.5 C 47.2317,20.1194 47.565,22.6194 48.5,25C 46.5273,25.4955 44.5273,25.6621 42.5,25.5C 41.8333,25.5 41.1667,25.5 40.5,25.5C 42.117,22.2157 44.4503,19.5491 47.5,17.5 Z"/></g>
<g><path style="opacity:1" fill="#59a7d3" d="M 53.5,24.5 C 56.8198,28.1443 58.8198,32.4776 59.5,37.5C 57.901,37.2322 56.5676,37.5655 55.5,38.5C 52.5,38.5 49.5,38.5 46.5,38.5C 45.7387,37.6091 44.7387,36.9424 43.5,36.5C 42.513,33.2317 42.1796,29.8984 42.5,26.5C 45.5184,26.6646 48.5184,26.498 51.5,26C 52.4158,25.7216 53.0825,25.2216 53.5,24.5 Z"/></g>
<g><path style="opacity:0.012" fill="#dd0001" d="M -0.5,30.5 C 0.403972,31.209 0.737305,32.209 0.5,33.5C 0.166667,33.5 -0.166667,33.5 -0.5,33.5C -0.5,32.5 -0.5,31.5 -0.5,30.5 Z"/></g>
<g><path style="opacity:1" fill="#a7cee5" d="M 40.5,25.5 C 41.1667,25.5 41.8333,25.5 42.5,25.5C 42.5,25.8333 42.5,26.1667 42.5,26.5C 42.1796,29.8984 42.513,33.2317 43.5,36.5C 44.7387,36.9424 45.7387,37.6091 46.5,38.5C 46.1667,38.5 45.8333,38.5 45.5,38.5C 41.8019,38.4476 38.1352,38.1143 34.5,37.5C 35.9899,33.1867 37.9899,29.1867 40.5,25.5 Z"/></g>
<g><path style="opacity:0.012" fill="#dd0001" d="M 95.5,30.5 C 95.5,31.5 95.5,32.5 95.5,33.5C 95.1667,33.5 94.8333,33.5 94.5,33.5C 94.2627,32.209 94.596,31.209 95.5,30.5 Z"/></g>
<g><path style="opacity:1" fill="#1f181c" d="M 55.5,38.5 C 56.5676,37.5655 57.901,37.2322 59.5,37.5C 60.4511,38.9187 60.7845,40.5853 60.5,42.5C 59.5,42.5 58.5,42.5 57.5,42.5C 57.8432,40.5168 57.1765,39.1834 55.5,38.5 Z"/></g>
<g><path style="opacity:1" fill="#ef1509" d="M 34.5,37.5 C 38.1352,38.1143 41.8019,38.4476 45.5,38.5C 46.9516,39.3019 48.6183,39.8019 50.5,40C 47.6488,42.2482 44.3155,43.0815 40.5,42.5C 38.5,42.5 36.5,42.5 34.5,42.5C 34.5,40.8333 34.5,39.1667 34.5,37.5 Z"/></g>
<g><path style="opacity:1" fill="#a51313" d="M 45.5,38.5 C 45.8333,38.5 46.1667,38.5 46.5,38.5C 49.5,38.5 52.5,38.5 55.5,38.5C 57.1765,39.1834 57.8432,40.5168 57.5,42.5C 54.4824,42.7038 51.4824,43.0371 48.5,43.5C 47.1667,43.5 45.8333,43.5 44.5,43.5C 42.901,43.7678 41.5676,43.4345 40.5,42.5C 44.3155,43.0815 47.6488,42.2482 50.5,40C 48.6183,39.8019 46.9516,39.3019 45.5,38.5 Z"/></g>
<g><path style="opacity:1" fill="#4fa3d2" d="M 57.5,42.5 C 58.5,42.5 59.5,42.5 60.5,42.5C 60.6483,47.3188 59.9816,51.9855 58.5,56.5C 56.3674,58.0905 54.7007,60.0905 53.5,62.5C 53.1667,62.5 52.8333,62.5 52.5,62.5C 50.0117,56.6053 48.6783,50.2719 48.5,43.5C 51.4824,43.0371 54.4824,42.7038 57.5,42.5 Z"/></g>
<g><path style="opacity:1" fill="#135e93" d="M 36.5,55.5 C 38.3998,57.6195 40.0664,59.9528 41.5,62.5C 40.4442,67.9485 38.2776,72.9485 35,77.5C 34.1512,72.422 32.9845,67.422 31.5,62.5C 32.0266,59.3132 33.6933,56.9799 36.5,55.5 Z"/></g>
<g><path style="opacity:1" fill="#115d93" d="M 58.5,56.5 C 60.8989,57.8982 62.5656,59.8982 63.5,62.5C 62.4353,67.5267 61.2686,72.5267 60,77.5C 56.7224,72.9485 54.5558,67.9485 53.5,62.5C 54.7007,60.0905 56.3674,58.0905 58.5,56.5 Z"/></g>
<g><path style="opacity:0.012" fill="#dd0001" d="M 94.5,61.5 C 94.8333,61.5 95.1667,61.5 95.5,61.5C 95.5,62.5 95.5,63.5 95.5,64.5C 95.1667,64.5 94.8333,64.5 94.5,64.5C 94.5,63.5 94.5,62.5 94.5,61.5 Z"/></g>
<g><path style="opacity:1" fill="#a7d2e9" d="M 34.5,42.5 C 36.5,42.5 38.5,42.5 40.5,42.5C 41.5676,43.4345 42.901,43.7678 44.5,43.5C 44.5027,50.5327 45.0027,57.5327 46,64.5C 46.1676,67.1768 47.001,69.5102 48.5,71.5C 41.0868,72.5677 39.7535,70.401 44.5,65C 43.6266,63.955 42.6266,63.1217 41.5,62.5C 40.0664,59.9528 38.3998,57.6195 36.5,55.5C 34.9372,51.3387 34.2705,47.0054 34.5,42.5 Z"/></g>
<g><path style="opacity:0.012" fill="#e10000" d="M 1.5,64.5 C 1.5,65.1667 1.5,65.8333 1.5,66.5C 0.166667,65.8333 0.166667,65.1667 1.5,64.5 Z"/></g>
<g><path style="opacity:0.012" fill="#e10000" d="M 93.5,64.5 C 93.8333,64.5 94.1667,64.5 94.5,64.5C 94.6716,65.4916 94.3382,66.1583 93.5,66.5C 93.5,65.8333 93.5,65.1667 93.5,64.5 Z"/></g>
<g><path style="opacity:1" fill="#7fbedf" d="M 44.5,43.5 C 45.8333,43.5 47.1667,43.5 48.5,43.5C 48.6783,50.2719 50.0117,56.6053 52.5,62.5C 52.0472,63.4584 51.3805,64.2917 50.5,65C 51.627,66.7533 52.627,68.5866 53.5,70.5C 51.9547,71.4519 50.288,71.7852 48.5,71.5C 47.001,69.5102 46.1676,67.1768 46,64.5C 45.0027,57.5327 44.5027,50.5327 44.5,43.5 Z"/></g>
<g><path style="opacity:0.012" fill="#fe0000" d="M 85.5,78.5 C 85.8333,78.5 86.1667,78.5 86.5,78.5C 86.3147,79.1701 85.9813,79.1701 85.5,78.5 Z"/></g>
<g><path style="opacity:0.016" fill="#be0000" d="M 84.5,79.5 C 84.8333,79.5 85.1667,79.5 85.5,79.5C 85.3147,80.1701 84.9813,80.1701 84.5,79.5 Z"/></g>
<g><path style="opacity:0.016" fill="#fe0000" d="M 83.5,80.5 C 83.8333,80.5 84.1667,80.5 84.5,80.5C 84.3147,81.1701 83.9813,81.1701 83.5,80.5 Z"/></g>
<g><path style="opacity:0.016" fill="#be0000" d="M 82.5,81.5 C 82.8333,81.5 83.1667,81.5 83.5,81.5C 83.3147,82.1701 82.9813,82.1701 82.5,81.5 Z"/></g>
<g><path style="opacity:0.016" fill="#be0000" d="M 81.5,82.5 C 81.8333,82.5 82.1667,82.5 82.5,82.5C 82.3147,83.1701 81.9813,83.1701 81.5,82.5 Z"/></g>
<g><path style="opacity:0.016" fill="#be0000" d="M 80.5,83.5 C 80.8333,83.5 81.1667,83.5 81.5,83.5C 81.3147,84.1701 80.9813,84.1701 80.5,83.5 Z"/></g>
<g><path style="opacity:0.016" fill="#be0000" d="M 79.5,84.5 C 79.8333,84.5 80.1667,84.5 80.5,84.5C 80.3147,85.1701 79.9813,85.1701 79.5,84.5 Z"/></g>
<g><path style="opacity:0.012" fill="#fe0000" d="M 78.5,85.5 C 78.8333,85.5 79.1667,85.5 79.5,85.5C 79.3147,86.1701 78.9813,86.1701 78.5,85.5 Z"/></g>
<g><path style="opacity:0.008" fill="#fe0000" d="M 77.5,86.5 C 77.8333,86.5 78.1667,86.5 78.5,86.5C 78.3147,87.1701 77.9813,87.1701 77.5,86.5 Z"/></g>
<g><path style="opacity:0.008" fill="#fe0000" d="M 75.5,88.5 C 75.5,88.1667 75.5,87.8333 75.5,87.5C 76.1667,87.5 76.8333,87.5 77.5,87.5C 77.1583,88.3382 76.4916,88.6716 75.5,88.5 Z"/></g>
<g><path style="opacity:0.012" fill="#fe0000" d="M 74.5,88.5 C 74.8333,88.5 75.1667,88.5 75.5,88.5C 75.3147,89.1701 74.9813,89.1701 74.5,88.5 Z"/></g>
<g><path style="opacity:0.004" fill="#e10000" d="M 72.5,90.5 C 72.5,90.1667 72.5,89.8333 72.5,89.5C 73.1667,89.5 73.8333,89.5 74.5,89.5C 74.1583,90.3382 73.4916,90.6716 72.5,90.5 Z"/></g>
<g><path style="opacity:0.012" fill="#a90000" d="M 71.5,90.5 C 71.8333,90.5 72.1667,90.5 72.5,90.5C 72.3147,91.1701 71.9813,91.1701 71.5,90.5 Z"/></g>
<g><path style="opacity:0.004" fill="#52170a" d="M 69.5,92.5 C 69.5,92.1667 69.5,91.8333 69.5,91.5C 70.1667,91.5 70.8333,91.5 71.5,91.5C 71.1583,92.3382 70.4916,92.6716 69.5,92.5 Z"/></g>
<g><path style="opacity:0.008" fill="#fe0000" d="M 67.5,93.5 C 67.5,93.1667 67.5,92.8333 67.5,92.5C 68.1667,92.5 68.8333,92.5 69.5,92.5C 69.1583,93.3382 68.4916,93.6716 67.5,93.5 Z"/></g>
<g><path style="opacity:0.012" fill="#911306" d="M 64.5,94.5 C 64.5,94.1667 64.5,93.8333 64.5,93.5C 65.5,93.5 66.5,93.5 67.5,93.5C 66.791,94.404 65.791,94.7373 64.5,94.5 Z"/></g>
<g><path style="opacity:0.016" fill="#9e0001" d="M 30.5,95.5 C 31.209,94.596 32.209,94.2627 33.5,94.5C 33.5,94.8333 33.5,95.1667 33.5,95.5C 32.5,95.5 31.5,95.5 30.5,95.5 Z"/></g>
<g><path style="opacity:0.016" fill="#9e0001" d="M 61.5,95.5 C 61.5,95.1667 61.5,94.8333 61.5,94.5C 62.5,94.5 63.5,94.5 64.5,94.5C 64.5,94.8333 64.5,95.1667 64.5,95.5C 63.5,95.5 62.5,95.5 61.5,95.5 Z"/></g>
</svg>
