<?xml version="1.0" encoding="UTF-8"?>
<svg version="1.1" id="svg" xmlns="http://www.w3.org/2000/svg"
xmlns:xlink="http://www.w3.org/1999/xlink" x="0px" y="0px"
width="1200px" height="617.732px" viewBox="0 0 1200 617.732"
enable-background="new 0 0 1200 617.732"
xml:space="preserve"><path id="goo"
fill="#C3363A"
d="M377.463,125.828c0,16.598,14.374,30.668,31.309,30.668c23.866,0,39.918-21.875,39.918-42.367
c0-41.148-38.327-62.652-76.229-62.652c-23.468,0-46.071,8.957-60.349,23.902c-9.709,10.175-15.257,23.363-16.304,38.23
c-9.64-2.007-19.755-3.141-30.979-3.141c-60.237,0-124.247,37.089-124.247,105.754c0,11.197,1.921,32.26,14.087,50.587
c-30.806,12.011-48.562,35.566-48.562,65.118c0,27.292,14.303,46.737,43.284,59.646C118.466,406.236,100,433.078,100,464.212
c0,94.694,124.237,102.043,162.321,102.043c76.307,0,165.436-27.537,165.436-105.123c0-41.97-28.625-76.497-76.547-92.446
c-34.968-11.67-70.993-12.659-104.88-12.659h-22.741c-26.973,0-57.96-2.803-57.96-24.704c0-9.329,6.904-19.791,16.104-19.791
c3.348,0,9.735,1.896,14.027,3.756c26.999,11.715,50.311,17.178,73.337,17.178c61.431,0,123.58-37.981,123.58-110.721
c0-36.362-18.397-70.726-48.113-89.979c0-0.095,0-0.233,0-0.233c0-10.133,2.89-18.787,8.117-24.273
c4.639-4.897,11.094-7.382,19.159-7.382c5.927,0,11.025,1.878,15.542,5.572C382.768,109.724,377.463,116.145,377.463,125.828
L377.463,125.828z
M193.266,424.71c21.643-10.515,57.684-11.64,72.17-11.64c36.527,0,97.871,6.387,97.871,49.291
c0,48.165-83.627,50.543-100.362,50.543c-18.397,0-44.617-2.283-62.98-8.86c-17.186-6.42-35.566-20.448-35.566-40.473
C164.398,441.075,184.57,428.871,193.266,424.71L193.266,424.71z
M266.016,277.878c-30.944,0-62.227-17.515-62.227-56.689
c0-32.693,27.016-57.303,62.842-57.303c30.72,0,63.983,19.833,65.333,56.696C330.614,260.156,297.913,277.878,266.016,277.878
M596.923,461.046c96.392,0,158.644-69.263,158.644-176.479c0-47.922-14.65-93.458-40.238-124.8
c-26.739-33.108-65.264-49.298-117.825-49.298c-92.981,0-153.08,69.098-153.08,175.95
C444.423,392.537,504.263,461.046,596.923,461.046L596.923,461.046z
M528.881,204.254c15.759-26.626,38.085-38.516,72.343-38.516
c21.875,0,51.505,5.643,68.828,32.563c13.206,20.354,21.132,51.653,21.132,83.783c0,37.2-9.154,123.745-93.681,123.745
c-82.259,0-88.664-92.827-88.664-121.262C508.84,255.959,516.525,225.17,528.881,204.254
M941.987,110.469
c-93.017,0-153.122,69.098-153.122,175.95c0,106.118,59.874,174.627,152.491,174.627c96.383,0,158.644-69.263,158.644-176.479
c0-47.922-14.677-93.388-40.186-124.8C1033.015,126.659,994.471,110.469,941.987,110.469L941.987,110.469z
M941.987,405.829
c-82.269,0-88.688-92.827-88.688-121.262c0-28.66,7.649-59.397,19.997-80.313c15.76-26.626,38.076-38.516,72.378-38.516
c21.849,0,51.506,5.643,68.822,32.563c13.221,20.354,21.095,51.653,21.095,83.783
C1035.591,319.284,1026.472,405.829,941.987,405.829
M584.211,388.642c-22.879,0-41.493-18.614-41.493-41.493
c0-22.862,18.614-41.501,41.493-41.501c22.871,0,41.468,18.639,41.468,41.501C625.68,370.027,607.082,388.642,584.211,388.642
M922.63,305.647c22.88,0,41.477,18.639,41.477,41.501c0,22.879-18.597,41.493-41.477,41.493c-22.914,0-41.484-18.614-41.484-41.493
C881.146,324.286,899.716,305.647,922.63,305.647"/></svg>
