<?xml version="1.0" encoding="UTF-8" standalone="no"?>
<!-- Created with Inkscape (http://www.inkscape.org/) -->

<svg
   width="256"
   height="256"
   viewBox="0 0 67.733333 67.733333"
   version="1.1"
   id="svg834"
   inkscape:version="1.1.1 (3bf5ae0d25, 2021-09-20, custom)"
   sodipodi:docname="goo.svg"
   xmlns:inkscape="http://www.inkscape.org/namespaces/inkscape"
   xmlns:sodipodi="http://sodipodi.sourceforge.net/DTD/sodipodi-0.dtd"
   xmlns="http://www.w3.org/2000/svg"
   xmlns:svg="http://www.w3.org/2000/svg">
  <sodipodi:namedview
     id="namedview836"
     pagecolor="#ffffff"
     bordercolor="#666666"
     borderopacity="1.0"
     inkscape:pageshadow="2"
     inkscape:pageopacity="0.0"
     inkscape:pagecheckerboard="0"
     inkscape:document-units="mm"
     showgrid="false"
     units="px"
     width="256px"
     inkscape:zoom="0.97192059"
     inkscape:cx="237.67374"
     inkscape:cy="405.89736"
     inkscape:window-width="1761"
     inkscape:window-height="1315"
     inkscape:window-x="706"
     inkscape:window-y="593"
     inkscape:window-maximized="0"
     inkscape:current-layer="layer1" />
  <defs
     id="defs831" />
  <g
     inkscape:label="Layer 1"
     inkscape:groupmode="layer"
     id="layer1">
    <path
       id="goo"
       fill="#c3363a"
       d="m 47.823655,10.250453 c 0,2.141532 1.854586,3.956892 4.039594,3.956892 3.079275,0 5.150358,-2.822388 5.150358,-5.4663352 0,-5.3090584 -4.945083,-8.08357867 -9.835324,-8.08357867 -3.027922,0 -5.944238,1.15566267 -7.786439,3.08391967 -1.252684,1.3128118 -1.96851,3.0143735 -2.103598,4.9325662 -1.243792,-0.2589502 -2.548864,-0.4052628 -3.997022,-0.4052628 -7.771981,0 -16.030776,4.7853498 -16.030776,13.6447458 0,1.444676 0.247854,4.162297 1.817554,6.52691 -3.974696,1.5497 -6.265637,4.588846 -6.265637,8.401748 0,3.521308 1.845423,6.030169 5.584652,7.695734 -3.990051,1.891871 -6.372597,5.355118 -6.372597,9.372135 0,12.217746 16.029483,13.165941 20.943217,13.165941 9.845392,0 21.345127,-3.552922 21.345127,-13.563335 0,-5.415114 -3.693307,-9.869907 -9.87636,-11.927702 -4.511692,-1.505703 -9.159765,-1.633308 -13.531982,-1.633308 h -2.934127 c -3.48015,0 -7.478195,-0.361653 -7.478195,-3.187394 0,-1.203661 0.890778,-2.553504 2.077788,-2.553504 0.431971,0 1.256051,0.244628 1.809814,0.484612 3.483502,1.51151 6.491297,2.216366 9.462201,2.216366 7.926032,0 15.944709,-4.90044 15.944709,-14.285607 0,-4.691551 -2.373634,-9.125312 -6.2077,-11.609401 v -0.03006 c 0,-1.3073947 0.372879,-2.4239637 1.047283,-3.1317867 0.598538,-0.6318276 1.431384,-0.9524508 2.47196,-0.9524508 0.76472,0 1.422488,0.2423058 2.005286,0.7189184 -0.595312,0.5514463 -1.279786,1.3799072 -1.279786,2.6292401 z m -23.765737,38.56279 c 2.792462,-1.356683 7.442597,-1.501834 9.31163,-1.501834 4.712836,0 12.627646,0.824072 12.627646,6.359692 0,6.214418 -10.789835,6.521235 -12.949045,6.521235 -2.373646,0 -5.756648,-0.294558 -8.125894,-1.143148 C 22.704849,58.220859 20.3334,56.410915 20.3334,53.827222 20.333272,50.92471 22.935932,49.350109 24.057918,48.813243 Z M 33.44438,29.86847 c -3.992504,0 -8.028746,-2.259845 -8.028746,-7.314211 0,-4.218164 3.485703,-7.393431 8.108095,-7.393431 3.963599,0 8.2553,2.558922 8.429482,7.315114 -0.174182,5.105974 -4.39337,7.392528 -8.508831,7.392528"
       style="stroke-width:0.264583"
       sodipodi:nodetypes="ssssccsscscssscsssscsscscscsscsssccccsscc" />
  </g>
</svg>
