<?xml version="1.0" encoding="UTF-8" standalone="no"?>
<svg
   width="99.165123"
   height="106.50997"
   version="1.1"
   viewBox="0 0 99.165524 106.50749"
   xml:space="preserve"
   id="svg22"
   xmlns="http://www.w3.org/2000/svg"
   xmlns:svg="http://www.w3.org/2000/svg"
   xmlns:rdf="http://www.w3.org/1999/02/22-rdf-syntax-ns#"
   xmlns:cc="http://creativecommons.org/ns#"
   xmlns:dc="http://purl.org/dc/elements/1.1/"><defs
     id="defs26" /><metadata
     id="metadata2"><rdf:RDF><cc:Work
         rdf:about=""><dc:format>image/svg+xml</dc:format><dc:type
           rdf:resource="http://purl.org/dc/dcmitype/StillImage" /><dc:title /></cc:Work></rdf:RDF></metadata><g
     transform="matrix(1.3333,0,0,-1.3333,-373.79199,107.42469)"
     id="g20"><g
       transform="scale(0.1)"
       fill="#f47216"
       id="g18"><path
         d="M 8.1133,805.72 V 6.87 h 110.19 v 688.66 h 422.38 V 6.87 h 107.12 v 688.66 h 264.75 c 104.06,0 156.1,-55.09 156.1,-163.75 V 6.87 h 111.71 v 543.28 c 0,169.87 -82.64,255.57 -246.39,255.57 H 8.1033"
         id="path4" /><path
         d="m 2074.1,6.8711 v 108.66 h -456.05 c -101,0 -151.5,53.563 -151.5,157.63 v 273.93 c 0,108.65 52.04,149.98 156.1,149.98 h 243.32 c 82.64,0 125.49,-41.32 125.49,-122.43 v -15.305 c 0,-70.391 -41.32,-105.59 -123.96,-105.59 h -325.14 v -94.886 l 354.22,0.003 c 136.2,0 202.01,59.692 202.01,177.53 v 58.152 c 0,140.78 -70.4,211.18 -212.72,211.18 h -281.59 c -165.28,0 -249.45,-85.699 -249.45,-255.57 v -287.7 c 0,-169.87 84.17,-255.57 249.45,-255.57 h 469.82"
         id="path6" /><path
         d="m 2654.1,115.53 h -21.53 c -98.36,0 -148.88,50.86 -151.4,149.73 v 431.81 h 172.93 v 108.65 h -172.93 v 73.277 h 0.16 v 112.79 c 0,48.231 -19.15,74.091 -69.52,74.091 h -42.19 v -113.38 h -0.17 v -146.78 h -149.97 v -108.65 h 149.97 v -146.92 l -0.1,0.003 v -287.7 c 0,-3.265 0.04,-6.492 0.1,-9.695 v -19.105 h 0.77 c 9.22,-150.7 92.92,-226.77 248.57,-226.77 h 35.31 v 108.66"
         id="path8" /><path
         d="M 2828,805.72 V 575.4 h 69.31 c 27.25,0 40.87,14.426 40.87,42.879 v 78.789 h 345.86 c 101.01,0 151.51,-53.668 151.51,-157.63 v -85.7 h -497.37 l 0.01,-52.015 c 0,-28.313 -13.75,-42.871 -40.87,-42.871 h -93.81 v -140.79 c 0,-140.79 70.4,-211.19 212.72,-211.19 h 281.59 c 165.27,0 249.45,85.699 249.45,255.57 v 287.7 c 0,169.87 -84.18,255.57 -249.45,255.57 z m 289.79,-446.87 h 74.76 c 50.36,0 69.52,-25.856 69.52,-74.098 v -112.79 c 0,-38.305 -19.21,-58.168 -56.76,-58.168 h -38.57 c -32.53,0 -48.95,19.25 -48.95,57.465 v 187.59"
         id="path10" /><path
         d="m 3966.6,1065.9 c -166.8,0 -249.45,-84.169 -249.45,-254.03 l 0.01,-550.94 c 0,-169.86 82.64,-254.04 249.45,-254.04 h 344.33 c 149.97,0 224.96,74.988 224.96,226.5 v 342.03 h -425.45 v -94.878 h 316.79 v -225.73 c 0,-93.34 -45.92,-139.26 -139.26,-139.26 h -299.95 c -102.52,0 -154.56,52.028 -154.56,157.62 l -0.01,520.33 c 0,105.6 52.03,157.62 154.57,157.62 h 521.85 v 114.78 H 3966.6"
         id="path12" /><path
         d="m 5875,805.72 c -166.81,0 -249.45,-85.699 -249.45,-255.82 V 6.88 h 111.72 v 524.66 c 0,108.91 53.56,164 157.62,164 h 195.89 V 805.73 H 5875"
         id="path14" /><path
         d="m 5426.6,6.8711 v 108.66 h -456.05 c -101,0 -151.5,53.563 -151.5,157.63 v 273.93 c 0,108.65 52.03,149.98 156.09,149.98 h 243.33 c 82.64,0 125.49,-41.32 125.49,-122.43 v -15.305 c 0,-70.391 -41.32,-105.59 -123.96,-105.59 h -325.14 v -94.886 l 354.22,0.003 c 136.2,0 202.01,59.692 202.01,177.53 v 58.152 c 0,140.78 -70.4,211.18 -212.72,211.18 h -281.59 c -165.28,0 -249.45,-85.699 -249.45,-255.57 v -287.7 c 0,-169.87 84.17,-255.57 249.45,-255.57 h 469.82"
         id="path16" /></g></g></svg>
