<svg xmlns="http://www.w3.org/2000/svg" width="400" height="400"><g fill-rule="evenodd"><path d="M183.2 200.28c-56.83.47-104.94 2.32-138.2 5.3l-9.2.79c-2.64.22-6.51.58-8.6.8-2.09.23-6.5.69-9.8 1.03l-11 1.2c-2.75.33-5.32.6-5.7.6-.66 0-.7 1.35-.7 22.76v22.76l1.5-.14 5.5-.56 8.2-.83 7.6-.8a2389.65 2389.65 0 0141.8-4c11.72-1.14 23.74-2.25 34.6-3.2 18.45-1.6 24.59-2.11 37.8-3.18 2.42-.2 7.01-.54 10.2-.77l11.4-.82c11.68-.85 17.8-1.27 24.2-1.65l12.4-.76c3.19-.2 8.95-.56 12.8-.78l14-.83c3.85-.23 10.24-.6 14.2-.8 3.96-.2 8.82-.47 10.8-.59 1.98-.12 7.74-.4 12.8-.61 5.06-.22 12.89-.58 17.4-.8 33.55-1.57 91.05-3.28 120.5-3.58l2.3-.02v-13.6c0-10.6-.11-13.6-.5-13.63-13.92-.72-77-2.63-104.5-3.16-17.9-.35-77.8-.42-111.8-.13" fill="#fbfbfb"/><path d="M369.92 231c-.11.1-7.57.37-16.57.6-34.65.85-44.25 1.19-84.37 3-7.26.32-15.1.68-17.4.8a5008.99 5008.99 0 00-65.3 3.81 2801.22 2801.22 0 00-44.7 3.18c-2.97.22-7.56.59-10.2.82-2.64.22-6.96.58-9.6.78-2.64.2-5.88.47-7.2.6-1.32.12-5.64.49-9.6.81-3.96.33-9.18.79-11.6 1.02-2.42.23-6.56.59-9.2.8-2.64.2-6.51.54-8.6.75-2.1.2-6.05.57-8.8.81-2.75.24-9.5.88-15 1.43-5.5.54-12.16 1.18-14.8 1.42-2.64.24-6.42.6-8.4.8L13.38 254c-1.98.21-5.4.56-7.6.77-2.2.2-4.42.5-4.92.66l-.91.27.11 48.82c.1 38.61.22 48.85.62 48.98.18.49.35 1 .5 1.51.15.52.24 1.06.4 1.59.12.41.25.82.4 1.22.12.33.27.65.4.98l.4 1.2.4 1.2.4 1.2c.13.4.23.81.4 1.2.11.28.26.53.4.8l.4.8.4.8.4.8.4.8.4.8a30.44 30.44 0 001.2 2c.25.39.54.75.8 1.14.26.4.48.81.74 1.21.33.52.67 1.04 1.03 1.55.2.3.44.6.65.9.13.19.24.38.38.56.72 1 1.52 1.96 2.3 2.92.94 1.16 1.86 2.33 2.86 3.43.35.38.72.75 1.1 1.09.95.85 1.98 1.6 2.97 2.4.97.8 1.93 1.62 2.91 2.4.35.27.7.55 1.06.8.41.29.85.55 1.28.8.24.13.49.23.72.37.31.2.6.45.9.66.5.35 1.02.7 1.54 1.03.43.26.87.49 1.3.74.22.13.43.28.66.4l.8.4.8.4.8.4.8.4.8.4c.26.13.52.29.8.4.39.16.8.27 1.2.4l1.2.4 1.2.4 1.2.4 1.2.4 1.2.4 1.32.4c.6.17.76.41 1.82.5 1.03.09 308.11.74 308.36 0 .09-.28 1-.35 1.5-.5.53-.15 1.07-.25 1.6-.4.4-.12.82-.25 1.22-.4.33-.12.65-.28.98-.4.4-.15.8-.27 1.2-.4l1.2-.4 1.2-.4c.4-.13.8-.24 1.2-.4.27-.11.53-.27.8-.4l.8-.4 2.4-1.2c.5-.26 1.01-.52 1.5-.8a43.67 43.67 0 006.74-4.4c1-.78 1.96-1.6 2.92-2.4.96-.8 1.95-1.56 2.87-2.4a25.3 25.3 0 001.57-1.57c.84-.92 1.6-1.9 2.4-2.86.8-.97 1.62-1.93 2.4-2.92l.8-1.05c.26-.35.55-.68.8-1.04.21-.3.4-.63.6-.96.21-.38.38-.78.6-1.16.24-.43.53-.82.8-1.24.27-.43.54-.85.8-1.29l.4-.71.4-.8.4-.8.4-.8.4-.8.4-.8c.13-.27.28-.52.4-.8.16-.39.26-.8.4-1.2l.4-1.2.4-1.2c.13-.4.25-.8.4-1.2.12-.33.27-.65.4-.98.14-.4.28-.8.4-1.22.15-.53.24-1.07.4-1.59.14-.5.22-1.42.5-1.51.4-.13.52-12.86.6-61.43l.12-61.27h-14.95c-8.22 0-15.03.09-15.13.2" fill="#242c44"/><path d="M48 .3c-.99.08-1.45.36-2.18.53-.57.13-1.14.22-1.7.37-.44.12-.88.26-1.32.4l-1.2.4-1.2.4-1.2.4-1.2.4-1.2.4c-.4.13-.81.24-1.2.4-.28.11-.53.27-.8.4l-.8.4-.8.4-.8.4-.8.4c-.27.13-.55.24-.8.4-.19.12-.34.28-.53.4-.44.3-.93.52-1.38.8-.4.25-.8.5-1.19.8-.31.25-.58.56-.9.8-.39.3-.8.56-1.23.8-.5.3-1.06.5-1.57.8-.43.25-.85.5-1.25.8-.87.64-1.65 1.4-2.47 2.1-.97.84-1.95 1.65-2.88 2.53-.4.37-.8.76-1.17 1.17-.88.93-1.7 1.91-2.53 2.88-.7.82-1.46 1.6-2.1 2.47-.3.4-.54.83-.8 1.25-.56.92-.97 1.93-1.6 2.8-.23.33-.55.59-.8.9-.3.38-.54.8-.8 1.2-.41.62-.83 1.25-1.2 1.9-.15.26-.27.53-.4.8l-.8 1.6-.4.8c-.13.27-.28.53-.4.8-.3.66-.55 1.33-.8 2-.29.8-.53 1.6-.8 2.4L2 41.6l-.4 1.2-.4 1.32c-.17.6-.22 1.55-.5 1.82-.6.6-.96 164.27-.37 163.9.2-.12 2.31-.42 4.7-.66 2.4-.25 5.81-.6 7.57-.8 24.14-2.57 31.04-3.19 51-4.55 26-1.78 34.63-2.14 73.8-3.12 27.65-.7 161.26-.7 185.6-.01 35.44 1 45.08 1.3 58.78 1.9 7.7.33 14.94.6 16.11.6h2.13l-.11-78.38c-.09-62.05-.21-78.48-.61-78.88-.28-.28-.33-1.22-.5-1.82l-.4-1.32-.4-1.2-.4-1.2-.4-1.2-.4-1.2-.4-1.2c-.13-.4-.24-.81-.4-1.2-.11-.28-.27-.53-.4-.8l-.4-.8-.4-.8-.4-.8-.4-.8-.4-.8c-.12-.22-.27-.43-.4-.65-.25-.43-.48-.88-.74-1.3-.33-.53-.68-1.04-1.03-1.55-.21-.3-.46-.58-.66-.9-.14-.23-.24-.48-.37-.71-.25-.44-.51-.87-.8-1.29-.25-.36-.53-.7-.8-1.05-.78-.99-1.6-1.94-2.4-2.92-.8-.98-1.55-2.02-2.4-2.97-.34-.38-.7-.74-1.09-1.1-1.1-1-2.27-1.92-3.43-2.86-.96-.78-1.91-1.58-2.91-2.3l-.57-.37-.9-.66c-.5-.35-1.03-.7-1.55-1.03-.4-.25-.81-.48-1.2-.74-.4-.25-.76-.54-1.15-.8a30.44 30.44 0 00-2-1.2l-.8-.4-.8-.4-.8-.4-.8-.4-.8-.4c-.27-.13-.52-.29-.8-.4-.39-.16-.8-.27-1.2-.4l-1.2-.4-1.2-.4c-.4-.13-.8-.25-1.2-.4-.33-.12-.65-.28-.98-.4-.4-.15-.8-.28-1.22-.4-.53-.15-1.07-.25-1.59-.4-.5-.15-1.42-.22-1.51-.5C354.14.23 53.31-.17 48 .3" fill="#6474fc"/></g></svg>