<?xml version="1.0" encoding="UTF-8" standalone="no"?>
<svg
   xmlns:dc="http://purl.org/dc/elements/1.1/"
   xmlns:cc="http://creativecommons.org/ns#"
   xmlns:rdf="http://www.w3.org/1999/02/22-rdf-syntax-ns#"
   xmlns:svg="http://www.w3.org/2000/svg"
   xmlns="http://www.w3.org/2000/svg"
   xmlns:sodipodi="http://sodipodi.sourceforge.net/DTD/sodipodi-0.dtd"
   xmlns:inkscape="http://www.inkscape.org/namespaces/inkscape"
   id="svg"
   version="1.1"
   width="400"
   height="400"
   viewBox="0, 0, 400,400"
   sodipodi:docname="image2vector.svg"
   inkscape:version="1.0.2 (e86c870879, 2021-01-15)">
  <metadata
     id="metadata13">
    <rdf:RDF>
      <cc:Work
         rdf:about="">
        <dc:format>image/svg+xml</dc:format>
        <dc:type
           rdf:resource="http://purl.org/dc/dcmitype/StillImage" />
        <dc:title></dc:title>
      </cc:Work>
    </rdf:RDF>
  </metadata>
  <defs
     id="defs11" />
  <sodipodi:namedview
     pagecolor="#ffffff"
     bordercolor="#666666"
     borderopacity="1"
     objecttolerance="10"
     gridtolerance="10"
     guidetolerance="10"
     inkscape:pageopacity="0"
     inkscape:pageshadow="2"
     inkscape:window-width="3840"
     inkscape:window-height="2065"
     id="namedview9"
     showgrid="false"
     inkscape:zoom="2.0276287"
     inkscape:cx="1.9389426"
     inkscape:cy="243.50846"
     inkscape:window-x="0"
     inkscape:window-y="0"
     inkscape:window-maximized="1"
     inkscape:current-layer="svgg" />
  <g
     id="svgg">
    <path
       id="path0"
       d="m 183.2,200.275 c -56.829,0.479 -104.937,2.323 -138.2,5.297 -2.42,0.216 -6.56,0.575 -9.2,0.798 -2.64,0.223 -6.51,0.585 -8.6,0.805 -2.09,0.22 -6.5,0.681 -9.8,1.025 -3.3,0.345 -8.25,0.889 -11,1.209 -2.75,0.321 -5.315,0.585 -5.7,0.587 C 0.042,210 0,211.352 0,232.762 v 22.762 l 1.5,-0.143 c 0.825,-0.078 3.3,-0.33 5.5,-0.559 2.2,-0.229 5.89,-0.606 8.2,-0.837 2.31,-0.232 5.73,-0.586 7.6,-0.788 7.396,-0.797 27.535,-2.755 33.2,-3.228 2.31,-0.193 6.18,-0.543 8.6,-0.778 11.718,-1.139 23.74,-2.249 34.6,-3.193 18.455,-1.604 24.587,-2.121 37.8,-3.189 2.42,-0.195 7.01,-0.541 10.2,-0.768 3.19,-0.228 8.32,-0.597 11.4,-0.82 11.679,-0.849 17.809,-1.267 24.2,-1.652 3.63,-0.219 9.21,-0.563 12.4,-0.764 3.19,-0.202 8.95,-0.553 12.8,-0.779 3.85,-0.227 10.15,-0.6 14,-0.829 3.85,-0.229 10.24,-0.588 14.2,-0.797 3.96,-0.209 8.82,-0.474 10.8,-0.59 1.98,-0.116 7.74,-0.392 12.8,-0.614 5.06,-0.221 12.89,-0.576 17.4,-0.788 33.554,-1.578 91.047,-3.288 120.5,-3.585 L 400,230.8 v -13.6 c 0,-10.599 -0.11,-13.606 -0.5,-13.626 -13.923,-0.723 -77.008,-2.636 -104.5,-3.169 -17.897,-0.346 -77.792,-0.416 -111.8,-0.13"
       stroke="none"
       fill="#fbfbfb"
       fill-rule="evenodd" />
    <path
       id="path1"
       d="m 369.916,230.993 c -0.106,0.106 -7.561,0.376 -16.566,0.598 -34.652,0.858 -44.248,1.199 -84.374,3.001 -7.26,0.326 -15.09,0.691 -17.4,0.811 -22.476,1.169 -37.512,2.046 -65.3,3.809 -11.33,0.719 -24.998,1.67 -34.1,2.373 -2.86,0.221 -7.63,0.583 -10.6,0.805 -2.97,0.222 -7.56,0.59 -10.2,0.817 -2.64,0.227 -6.96,0.579 -9.6,0.782 -2.64,0.202 -5.88,0.471 -7.2,0.596 -1.32,0.126 -5.64,0.494 -9.6,0.819 -3.96,0.325 -9.18,0.781 -11.6,1.013 -2.42,0.233 -6.56,0.592 -9.2,0.798 -2.64,0.207 -6.51,0.546 -8.6,0.753 -2.09,0.207 -6.05,0.573 -8.8,0.813 -2.75,0.239 -9.5,0.882 -15,1.428 -5.5,0.546 -12.16,1.186 -14.8,1.424 -2.64,0.237 -6.42,0.596 -8.4,0.797 -6.279,0.638 -11.488,1.176 -15.2,1.57 -1.98,0.21 -5.4,0.555 -7.6,0.766 -2.2,0.211 -4.412,0.508 -4.915,0.66 l -0.915,0.275 0.115,48.816 c 0.091,38.616 0.219,48.851 0.615,48.983 0.18206905,0.48728 0.3518894,1.0009 0.5,1.51 0.1526651,0.52476 0.2483599,1.06494 0.4,1.59 0.1190986,0.41238 0.2518466,0.82114 0.4,1.224 0.121356,0.32999 0.2776721,0.64637 0.4,0.976 0.1466968,0.39529 0.2666667,0.8 0.4,1.2 l 0.4,1.2 0.4,1.2 c 0.1333333,0.4 0.2386465,0.81046 0.4,1.2 0.1140942,0.27545 0.2666667,0.53333 0.4,0.8 0.1333333,0.26667 0.2666667,0.53333 0.4,0.8 0.1333333,0.26667 0.2666667,0.53333 0.4,0.8 0.1333333,0.26667 0.2666667,0.53333 0.4,0.8 0.1333333,0.26667 0.2666667,0.53333 0.4,0.8 0.1333333,0.26667 0.2602783,0.53662 0.4,0.8 0.1275744,0.24048 0.2614842,0.47765 0.4,0.712 0.2571691,0.43509 0.521484,0.86626 0.8,1.288 0.2559748,0.38761 0.5451606,0.75264 0.8,1.141 0.2599786,0.39619 0.4880797,0.81254 0.743,1.212 0.3329674,0.52176 0.6732745,1.03908 1.027,1.547 0.212269,0.3048 0.445122,0.59493 0.657,0.9 0.128732,0.18535 0.240791,0.38211 0.373,0.565 0.724795,1.00264 1.520133,1.95257 2.3,2.913 0.940261,1.15796 1.859099,2.33633 2.868,3.435 0.348184,0.37916 0.713565,0.74352 1.097,1.087 0.947494,0.84875 1.981474,1.59572 2.967,2.4 0.975122,0.79578 1.927879,1.61915 2.915,2.4 0.34572,0.27348 0.689872,0.5501 1.053,0.8 0.416345,0.28652 0.849192,0.54923 1.288,0.8 0.232622,0.13294 0.484509,0.23146 0.712,0.373 0.315371,0.19622 0.5952,0.44473 0.9,0.657 0.50792,0.35373 1.020184,0.70209 1.547,1.027 0.424817,0.26201 0.870478,0.48878 1.3,0.743 0.219666,0.13001 0.429806,0.27614 0.653,0.4 0.260692,0.14467 0.533333,0.26667 0.8,0.4 0.266667,0.13333 0.533333,0.26667 0.8,0.4 0.266667,0.13333 0.533333,0.26667 0.8,0.4 0.266667,0.13333 0.533333,0.26667 0.8,0.4 0.266667,0.13333 0.533333,0.26667 0.8,0.4 0.266667,0.13333 0.524552,0.28591 0.8,0.4 0.389542,0.16135 0.8,0.26667 1.2,0.4 0.4,0.13333 0.8,0.26667 1.2,0.4 0.4,0.13333 0.8,0.26667 1.2,0.4 0.4,0.13333 0.8,0.26667 1.2,0.4 0.4,0.13333 0.8,0.26667 1.2,0.4 0.4,0.13333 0.798204,0.27218 1.2,0.4 0.438124,0.13937 0.878296,0.27243 1.32,0.4 0.604438,0.17458 0.763899,0.41335 1.82,0.5 1.037376,0.0851 308.115,0.736 308.36,0 0.092,-0.275 1.0009,-0.35189 1.51,-0.5 0.52476,-0.15267 1.06494,-0.24836 1.59,-0.4 0.41238,-0.1191 0.82114,-0.25185 1.224,-0.4 0.32999,-0.12136 0.64637,-0.27767 0.976,-0.4 0.39529,-0.1467 0.8,-0.26667 1.2,-0.4 0.4,-0.13333 0.8,-0.26667 1.2,-0.4 0.4,-0.13333 0.8,-0.26667 1.2,-0.4 0.4,-0.13333 0.81046,-0.23865 1.2,-0.4 0.27545,-0.11409 0.53333,-0.26667 0.8,-0.4 0.26667,-0.13333 0.53333,-0.26667 0.8,-0.4 0.8,-0.4 1.60465,-0.79082 2.4,-1.2 0.50703,-0.26085 1.01499,-0.52052 1.512,-0.8 1.2477,-0.70162 2.48619,-1.42238 3.688,-2.2 0.68322,-0.44207 1.34255,-0.92043 2,-1.4 0.35613,-0.25978 0.70728,-0.52652 1.053,-0.8 0.98712,-0.78085 1.94688,-1.59571 2.915,-2.4 0.95786,-0.79577 1.94467,-1.55891 2.863,-2.4 0.54544,-0.49956 1.06944,-1.02356 1.569,-1.569 0.84109,-0.91833 1.60423,-1.90514 2.4,-2.863 0.80429,-0.96812 1.61915,-1.92788 2.4,-2.915 0.27348,-0.34572 0.5322,-0.70286 0.8,-1.053 0.26555,-0.34719 0.55062,-0.68002 0.8,-1.039 0.21545,-0.31015 0.41316,-0.63282 0.6,-0.961 0.21553,-0.37857 0.3816,-0.78408 0.6,-1.161 0.24647,-0.42536 0.53696,-0.82368 0.8,-1.239 0.27042,-0.42698 0.54283,-0.85291 0.8,-1.288 0.13852,-0.23435 0.27243,-0.47152 0.4,-0.712 0.13972,-0.26338 0.26667,-0.53333 0.4,-0.8 0.13333,-0.26667 0.26667,-0.53333 0.4,-0.8 0.13333,-0.26667 0.26667,-0.53333 0.4,-0.8 0.13333,-0.26667 0.26667,-0.53333 0.4,-0.8 0.13333,-0.26667 0.26667,-0.53333 0.4,-0.8 0.13333,-0.26667 0.28591,-0.52455 0.4,-0.8 0.16135,-0.38954 0.26667,-0.8 0.4,-1.2 0.13333,-0.4 0.26667,-0.8 0.4,-1.2 0.13333,-0.4 0.26667,-0.8 0.4,-1.2 0.13333,-0.4 0.2533,-0.80471 0.4,-1.2 0.12233,-0.32963 0.27864,-0.64601 0.4,-0.976 0.14815,-0.40286 0.2809,-0.81162 0.4,-1.224 0.15164,-0.52506 0.24733,-1.06524 0.4,-1.59 0.14811,-0.5091 0.225,-1.418 0.5,-1.51 0.396,-0.132 0.523,-12.855 0.612,-61.433 L 400,230.8 h -14.945 c -8.22,0 -15.033,0.087 -15.139,0.193"
       stroke="none"
       fill="#242c44"
       fill-rule="evenodd"
       sodipodi:nodetypes="ccscccssccsccscscccsccscaaaaaaaaaaaaaaaaaaaaaaaaaaaaaaaaaaaaaaaaaaaaaascaaaaaaaaaaaaaaaaaaaaaaaaaaaaaaaaaaaaaaaacccsc" />
    <path
       id="path2"
       d="M 48,0.293 C 47.01,0.379 46.548594,0.65576055 45.82,0.825 45.254759,0.95629545 44.681426,1.0532468 44.12,1.2 43.675187,1.3162713 43.238124,1.460626 42.8,1.6 42.398204,1.7278177 42,1.8666667 41.6,2 41.2,2.1333333 40.8,2.2666667 40.4,2.4 40,2.5333333 39.6,2.6666667 39.2,2.8 38.8,2.9333333 38.4,3.0666667 38,3.2 37.6,3.3333333 37.2,3.4666667 36.8,3.6 36.4,3.7333333 35.989542,3.8386465 35.6,4 35.324552,4.1140942 35.066667,4.2666667 34.8,4.4 34.533333,4.5333333 34.266667,4.6666667 34,4.8 33.733333,4.9333333 33.466667,5.0666667 33.2,5.2 32.933333,5.3333333 32.666667,5.4666667 32.4,5.6 32.133333,5.7333333 31.866667,5.8666667 31.6,6 31.333333,6.1333333 31.05302,6.2422977 30.8,6.4 30.613291,6.5163722 30.458087,6.6780085 30.275,6.8 29.8318,7.0953058 29.343582,7.3176776 28.892,7.6 28.487419,7.852938 28.082386,8.1080355 27.705,8.4 27.386544,8.6463734 27.120327,8.956064 26.8,9.2 26.411556,9.4958092 25.99571,9.7556468 25.573,10 25.063719,10.294397 24.510681,10.508039 24,10.8 c -0.430194,0.245946 -0.854534,0.505414 -1.253,0.8 -0.868581,0.642143 -1.650553,1.393911 -2.468,2.1 -0.966894,0.835177 -1.949446,1.653645 -2.882,2.527 -0.402568,0.377013 -0.792987,0.767432 -1.17,1.17 -0.873355,0.932554 -1.691823,1.915106 -2.527,2.882 -0.706089,0.817447 -1.457857,1.599419 -2.1,2.468 C 11.305414,23.145466 11.056338,23.575916 10.8,24 10.243926,24.919966 9.8259224,25.926057 9.2,26.8 8.9655581,27.127339 8.6463734,27.386544 8.4,27.705 8.1080355,28.082386 7.8603782,28.492167 7.6,28.892 7.1899954,29.521597 6.7684426,30.145213 6.4,30.8 6.2537947,31.059832 6.1333333,31.333333 6,31.6 5.7333333,32.133333 5.4666667,32.666667 5.2,33.2 5.0666667,33.466667 4.9333333,33.733333 4.8,34 4.6666667,34.266667 4.5221358,34.528023 4.4,34.8 4.105858,35.455008 3.8469691,36.125788 3.6,36.8 3.3099495,37.591822 3.0666667,38.4 2.8,39.2 2.5333333,40 2,41.6 2,41.6 1.8666667,42 1.7278177,42.398204 1.6,42.8 1.460626,43.238124 1.3275749,43.678296 1.2,44.12 1.0254236,44.724438 0.975,45.665 0.7,45.94 0.103,46.537 -0.265,210.211 0.331,209.843 c 0.191,-0.119 2.31,-0.418 4.708,-0.665 2.399,-0.248 5.801,-0.604 7.561,-0.792 24.141,-2.578 31.04,-3.194 51,-4.558 25.991,-1.776 34.633,-2.142 73.8,-3.119 27.648,-0.69 161.261,-0.699 185.6,-0.013 35.442,1 45.081,1.312 58.785,1.902 7.691,0.331 14.94,0.602 16.108,0.602 h 2.124 l -0.108,-78.38 c -0.086,-62.054 -0.213,-78.484 -0.609,-78.88 -0.275,-0.275 -0.32542,-1.215562 -0.5,-1.82 -0.12757,-0.441704 -0.26063,-0.881876 -0.4,-1.32 -0.12782,-0.401796 -0.26667,-0.8 -0.4,-1.2 -0.13333,-0.4 -0.26667,-0.8 -0.4,-1.2 -0.13333,-0.4 -0.26667,-0.8 -0.4,-1.2 -0.13333,-0.4 -0.26667,-0.8 -0.4,-1.2 -0.13333,-0.4 -0.26667,-0.8 -0.4,-1.2 -0.13333,-0.4 -0.23865,-0.810458 -0.4,-1.2 -0.11409,-0.275448 -0.26667,-0.533333 -0.4,-0.8 -0.13333,-0.266667 -0.26667,-0.533333 -0.4,-0.8 -0.13333,-0.266667 -0.26667,-0.533333 -0.4,-0.8 -0.13333,-0.266667 -0.26667,-0.533333 -0.4,-0.8 -0.13333,-0.266667 -0.26667,-0.533333 -0.4,-0.8 -0.13333,-0.266667 -0.25533,-0.539308 -0.4,-0.8 -0.12386,-0.223194 -0.26999,-0.433334 -0.4,-0.653 -0.25422,-0.429522 -0.48099,-0.875183 -0.743,-1.3 -0.32491,-0.526816 -0.67327,-1.03908 -1.027,-1.547 -0.21227,-0.3048 -0.46078,-0.584629 -0.657,-0.9 -0.14154,-0.227491 -0.24006,-0.479378 -0.373,-0.712 -0.25077,-0.438808 -0.51348,-0.871655 -0.8,-1.288 -0.2499,-0.363128 -0.52652,-0.70728 -0.8,-1.053 -0.78085,-0.987121 -1.60422,-1.939878 -2.4,-2.915 -0.80428,-0.985526 -1.55125,-2.019506 -2.4,-2.967 -0.34348,-0.383435 -0.70784,-0.748816 -1.087,-1.097 -1.09867,-1.008901 -2.27704,-1.927739 -3.435,-2.868 -0.96043,-0.779867 -1.91036,-1.575205 -2.913,-2.3 -0.18289,-0.132209 -0.37965,-0.244268 -0.565,-0.373 -0.30507,-0.211878 -0.5952,-0.444731 -0.9,-0.657 C 374.59208,9.8162745 374.07476,9.4759674 373.553,9.143 373.15354,8.8880797 372.73719,8.6599786 372.341,8.4 371.95264,8.1451606 371.58761,7.8559748 371.2,7.6 370.77826,7.321484 370.34709,7.0571691 369.912,6.8 369.67765,6.6614842 369.44048,6.5275744 369.2,6.4 368.93662,6.2602783 368.66667,6.1333333 368.4,6 368.13333,5.8666667 367.86667,5.7333333 367.6,5.6 367.33333,5.4666667 367.06667,5.3333333 366.8,5.2 366.53333,5.0666667 366.26667,4.9333333 366,4.8 365.73333,4.6666667 365.46667,4.5333333 365.2,4.4 364.93333,4.2666667 364.67545,4.1140942 364.4,4 364.01046,3.8386465 363.6,3.7333333 363.2,3.6 L 362,3.2 360.8,2.8 C 360.4,2.6666667 359.99529,2.5466968 359.6,2.4 359.27037,2.2776721 358.95399,2.121356 358.624,2 358.22114,1.8518466 357.81238,1.7190986 357.4,1.6 356.87494,1.4483599 356.33476,1.3526651 355.81,1.2 355.3009,1.0518894 354.392,0.975 354.3,0.7 354.142,0.227 53.311,-0.173 48,0.293"
       stroke="none"
       fill="#6474fc"
       fill-rule="evenodd"
       sodipodi:nodetypes="caaaaaaaaaaaaaaaaaaaaaaaaaaaaaaaaaaaaaacaascccccccsccsaaaaaaaaaaaaaaaaaaaaaaaaaaaaaaaaaaaaaaaaaaaaaacc" />
  </g>
</svg>
